<svg id="Layer_1" data-name="Layer 1" xmlns="http://www.w3.org/2000/svg" viewBox="0 0 416 128"><defs><style>.cls-1{font-size:149.8px;fill:#ffc83d;font-family:PlusJakartaSans-Bold, Plus Jakarta Sans;font-weight:700;}.cls-2{fill:none;stroke:#231f20;stroke-width:6px;}</style></defs><title>logo_galih</title><text class="cls-1" transform="translate(0.12 119.94)">Galih.</text><path class="cls-2" d="M63.79,124.74a60.17,60.17,0,0,1-23.33-4.5,57.07,57.07,0,0,1-18.81-12.73A59,59,0,0,1,9.1,88.18,64,64,0,0,1,4.61,64.06,65.08,65.08,0,0,1,9,40,58.43,58.43,0,0,1,21.34,20.7,56.14,56.14,0,0,1,40,8a60.17,60.17,0,0,1,23.33-4.5A57.73,57.73,0,0,1,86,7.82a52.82,52.82,0,0,1,17.06,11.37,42.93,42.93,0,0,1,10.13,15.7l.92,2.55L90.61,48.71l-1.16-3.06a27.39,27.39,0,0,0-9.74-12.71c-4.45-3.2-10-4.82-16.37-4.82a31.83,31.83,0,0,0-16.86,4.42A30.8,30.8,0,0,0,35.15,45,41.46,41.46,0,0,0,31,64.06a40.85,40.85,0,0,0,4.23,19.07A31.39,31.39,0,0,0,46.78,95.66a32.08,32.08,0,0,0,17,4.5,33.93,33.93,0,0,0,14.46-3.08,25.7,25.7,0,0,0,10.34-8.59A21.1,21.1,0,0,0,92.29,78H60.34V54.77h58.43V69a59.28,59.28,0,0,1-4.6,24.06,51,51,0,0,1-12.5,17.49A53.73,53.73,0,0,1,84,121.19,59.23,59.23,0,0,1,63.79,124.74Z"/><path class="cls-2" d="M155,124.74c-9.16,0-16.66-2.35-22.28-7C126.94,113,124,106.47,124,98.37A25.67,25.67,0,0,1,131.8,79.3c5-4.91,12.71-8.26,22.87-10l21.77-3.49v-.14a8,8,0,0,0-3.07-6.48c-2.21-1.88-5.13-2.8-8.91-2.8A16,16,0,0,0,155,59.25a16.65,16.65,0,0,0-6,7.59l-1.21,3L126.38,59.43l1-2.56a33.41,33.41,0,0,1,14.43-16.94,44.31,44.31,0,0,1,23.44-6.28,43.14,43.14,0,0,1,18.91,4,32.28,32.28,0,0,1,13.1,11.31,30,30,0,0,1,4.84,16.78v57.23H177.48v-5C171.31,122.46,163.79,124.74,155,124.74Zm4.39-34.95c-9,1.76-9,6.17-9,7.83a5.06,5.06,0,0,0,2,4.31,9.75,9.75,0,0,0,6.23,1.83c5.41,0,9.64-1.62,12.92-5a16.43,16.43,0,0,0,4.91-11.88Z"/><rect class="cls-2" x="214.18" y="3.54" width="25.62" height="119.4"/><path class="cls-2" d="M251.93,122.94V35.45h25.63v87.49Zm0-90.63v-27h25.63v27Z"/><path class="cls-2" d="M342.26,122.94V72.15c0-4.61-1.23-8.11-3.78-10.7a14.11,14.11,0,0,0-19.37.06c-2.56,2.64-3.8,6.12-3.8,10.64v50.79H289.68V3.54h25.63V39.2a25.17,25.17,0,0,1,4.94-2.83,34.86,34.86,0,0,1,13.93-2.72,35.24,35.24,0,0,1,17.42,4.28,30.82,30.82,0,0,1,12,12,35.55,35.55,0,0,1,4.28,17.57v55.43Z"/><rect class="cls-2" x="387.8" y="95.97" width="25.77" height="26.97"/></svg>